<mxfile host="app.diagrams.net" modified="2023-08-09T13:54:26.713Z" agent="Mozilla/5.0 (Macintosh; Intel Mac OS X 10.15; rv:109.0) Gecko/20100101 Firefox/115.0" etag="h7XrrjcsYvMXEv6hNmbP" version="21.6.6" type="device">
  <diagram name="Page-1" id="minKgNKUYYjlFyc8hNNV">
    <mxGraphModel dx="1394" dy="712" grid="1" gridSize="10" guides="1" tooltips="1" connect="1" arrows="1" fold="1" page="1" pageScale="1" pageWidth="850" pageHeight="1100" math="0" shadow="0">
      <root>
        <mxCell id="0" />
        <mxCell id="1" parent="0" />
        <mxCell id="FvZhwTyln-ppsPq1cp1o-1" value="Iterable" style="swimlane;fontStyle=0;childLayout=stackLayout;horizontal=1;startSize=26;fillColor=none;horizontalStack=0;resizeParent=1;resizeParentMax=0;resizeLast=0;collapsible=1;marginBottom=0;whiteSpace=wrap;html=1;" vertex="1" parent="1">
          <mxGeometry x="210" y="120" width="140" height="52" as="geometry" />
        </mxCell>
        <mxCell id="FvZhwTyln-ppsPq1cp1o-3" value="__iter__" style="text;strokeColor=none;fillColor=none;align=left;verticalAlign=top;spacingLeft=4;spacingRight=4;overflow=hidden;rotatable=0;points=[[0,0.5],[1,0.5]];portConstraint=eastwest;whiteSpace=wrap;html=1;" vertex="1" parent="FvZhwTyln-ppsPq1cp1o-1">
          <mxGeometry y="26" width="140" height="26" as="geometry" />
        </mxCell>
        <mxCell id="FvZhwTyln-ppsPq1cp1o-5" value="Sized" style="swimlane;fontStyle=0;childLayout=stackLayout;horizontal=1;startSize=26;fillColor=none;horizontalStack=0;resizeParent=1;resizeParentMax=0;resizeLast=0;collapsible=1;marginBottom=0;whiteSpace=wrap;html=1;" vertex="1" parent="1">
          <mxGeometry x="400" y="120" width="140" height="52" as="geometry" />
        </mxCell>
        <mxCell id="FvZhwTyln-ppsPq1cp1o-6" value="__len__" style="text;strokeColor=none;fillColor=none;align=left;verticalAlign=top;spacingLeft=4;spacingRight=4;overflow=hidden;rotatable=0;points=[[0,0.5],[1,0.5]];portConstraint=eastwest;whiteSpace=wrap;html=1;" vertex="1" parent="FvZhwTyln-ppsPq1cp1o-5">
          <mxGeometry y="26" width="140" height="26" as="geometry" />
        </mxCell>
        <mxCell id="FvZhwTyln-ppsPq1cp1o-7" value="Container" style="swimlane;fontStyle=0;childLayout=stackLayout;horizontal=1;startSize=26;fillColor=none;horizontalStack=0;resizeParent=1;resizeParentMax=0;resizeLast=0;collapsible=1;marginBottom=0;whiteSpace=wrap;html=1;" vertex="1" parent="1">
          <mxGeometry x="600" y="120" width="140" height="52" as="geometry" />
        </mxCell>
        <mxCell id="FvZhwTyln-ppsPq1cp1o-8" value="__contains__" style="text;strokeColor=none;fillColor=none;align=left;verticalAlign=top;spacingLeft=4;spacingRight=4;overflow=hidden;rotatable=0;points=[[0,0.5],[1,0.5]];portConstraint=eastwest;whiteSpace=wrap;html=1;" vertex="1" parent="FvZhwTyln-ppsPq1cp1o-7">
          <mxGeometry y="26" width="140" height="26" as="geometry" />
        </mxCell>
        <mxCell id="FvZhwTyln-ppsPq1cp1o-9" value="Collection" style="html=1;whiteSpace=wrap;" vertex="1" parent="1">
          <mxGeometry x="400" y="260" width="110" height="50" as="geometry" />
        </mxCell>
        <mxCell id="FvZhwTyln-ppsPq1cp1o-10" value="Reversible" style="swimlane;fontStyle=0;childLayout=stackLayout;horizontal=1;startSize=26;fillColor=none;horizontalStack=0;resizeParent=1;resizeParentMax=0;resizeLast=0;collapsible=1;marginBottom=0;whiteSpace=wrap;html=1;" vertex="1" parent="1">
          <mxGeometry x="180" y="259" width="140" height="52" as="geometry" />
        </mxCell>
        <mxCell id="FvZhwTyln-ppsPq1cp1o-11" value="__reversed__" style="text;strokeColor=none;fillColor=none;align=left;verticalAlign=top;spacingLeft=4;spacingRight=4;overflow=hidden;rotatable=0;points=[[0,0.5],[1,0.5]];portConstraint=eastwest;whiteSpace=wrap;html=1;" vertex="1" parent="FvZhwTyln-ppsPq1cp1o-10">
          <mxGeometry y="26" width="140" height="26" as="geometry" />
        </mxCell>
        <mxCell id="FvZhwTyln-ppsPq1cp1o-12" value="Sequence" style="swimlane;fontStyle=0;childLayout=stackLayout;horizontal=1;startSize=20;fillColor=none;horizontalStack=0;resizeParent=1;resizeParentMax=0;resizeLast=0;collapsible=1;marginBottom=0;whiteSpace=wrap;html=1;" vertex="1" parent="1">
          <mxGeometry x="210" y="380" width="130" height="120" as="geometry" />
        </mxCell>
        <mxCell id="FvZhwTyln-ppsPq1cp1o-13" value="&lt;div&gt;__getitem__&lt;/div&gt;&lt;div&gt;__contains__&lt;/div&gt;&lt;div&gt;__iter__&lt;/div&gt;&lt;div&gt;__reversed__&lt;/div&gt;&lt;div&gt;index&lt;/div&gt;&lt;div&gt;count&lt;br&gt;&lt;/div&gt;&lt;div&gt;&lt;br&gt;&lt;/div&gt;" style="text;strokeColor=none;fillColor=none;align=left;verticalAlign=top;spacingLeft=4;spacingRight=4;overflow=hidden;rotatable=0;points=[[0,0.5],[1,0.5]];portConstraint=eastwest;whiteSpace=wrap;html=1;" vertex="1" parent="FvZhwTyln-ppsPq1cp1o-12">
          <mxGeometry y="20" width="130" height="100" as="geometry" />
        </mxCell>
        <mxCell id="FvZhwTyln-ppsPq1cp1o-15" value="Mapping" style="swimlane;fontStyle=0;childLayout=stackLayout;horizontal=1;startSize=20;fillColor=none;horizontalStack=0;resizeParent=1;resizeParentMax=0;resizeLast=0;collapsible=1;marginBottom=0;whiteSpace=wrap;html=1;" vertex="1" parent="1">
          <mxGeometry x="400" y="380" width="130" height="150" as="geometry" />
        </mxCell>
        <mxCell id="FvZhwTyln-ppsPq1cp1o-16" value="&lt;div&gt;__getitem__&lt;/div&gt;&lt;div&gt;__contains__&lt;/div&gt;&lt;div&gt;__eq__&lt;/div&gt;&lt;div&gt;__ne__&lt;/div&gt;&lt;div&gt;get&lt;/div&gt;&lt;div&gt;items&lt;br&gt;&lt;/div&gt;&lt;div&gt;keys&lt;/div&gt;&lt;div&gt;values&lt;br&gt;&lt;/div&gt;&lt;div&gt;&lt;br&gt;&lt;/div&gt;" style="text;strokeColor=none;fillColor=none;align=left;verticalAlign=top;spacingLeft=4;spacingRight=4;overflow=hidden;rotatable=0;points=[[0,0.5],[1,0.5]];portConstraint=eastwest;whiteSpace=wrap;html=1;" vertex="1" parent="FvZhwTyln-ppsPq1cp1o-15">
          <mxGeometry y="20" width="130" height="130" as="geometry" />
        </mxCell>
        <mxCell id="FvZhwTyln-ppsPq1cp1o-17" value="Set" style="swimlane;fontStyle=0;childLayout=stackLayout;horizontal=1;startSize=20;fillColor=none;horizontalStack=0;resizeParent=1;resizeParentMax=0;resizeLast=0;collapsible=1;marginBottom=0;whiteSpace=wrap;html=1;" vertex="1" parent="1">
          <mxGeometry x="620" y="380" width="130" height="190" as="geometry" />
        </mxCell>
        <mxCell id="FvZhwTyln-ppsPq1cp1o-18" value="&lt;div&gt;isdisjoint&lt;br&gt;&lt;/div&gt;&lt;div&gt;__le__&lt;/div&gt;&lt;div&gt;__it__&lt;/div&gt;&lt;div&gt;__gt__&lt;/div&gt;&lt;div&gt;__ge__&lt;/div&gt;&lt;div&gt;__eq__&lt;br&gt;&lt;/div&gt;&lt;div&gt;__ne__&lt;/div&gt;&lt;div&gt;__and__&lt;/div&gt;&lt;div&gt;__or__&lt;/div&gt;&lt;div&gt;__sub__&lt;/div&gt;&lt;div&gt;__xor&lt;br&gt;&lt;/div&gt;&lt;div&gt;&lt;br&gt;&lt;/div&gt;" style="text;strokeColor=none;fillColor=none;align=left;verticalAlign=top;spacingLeft=4;spacingRight=4;overflow=hidden;rotatable=0;points=[[0,0.5],[1,0.5]];portConstraint=eastwest;whiteSpace=wrap;html=1;" vertex="1" parent="FvZhwTyln-ppsPq1cp1o-17">
          <mxGeometry y="20" width="130" height="170" as="geometry" />
        </mxCell>
        <mxCell id="FvZhwTyln-ppsPq1cp1o-21" value="" style="endArrow=block;dashed=1;endFill=0;endSize=12;html=1;rounded=0;entryX=1;entryY=1;entryDx=0;entryDy=0;" edge="1" parent="1" target="FvZhwTyln-ppsPq1cp1o-9">
          <mxGeometry width="160" relative="1" as="geometry">
            <mxPoint x="680" y="379" as="sourcePoint" />
            <mxPoint x="840" y="379" as="targetPoint" />
          </mxGeometry>
        </mxCell>
        <mxCell id="FvZhwTyln-ppsPq1cp1o-25" value="" style="endArrow=block;dashed=1;endFill=0;endSize=12;html=1;rounded=0;entryX=0.214;entryY=1;entryDx=0;entryDy=0;entryPerimeter=0;" edge="1" parent="1" target="FvZhwTyln-ppsPq1cp1o-3">
          <mxGeometry width="160" relative="1" as="geometry">
            <mxPoint x="240" y="259" as="sourcePoint" />
            <mxPoint x="400" y="259" as="targetPoint" />
          </mxGeometry>
        </mxCell>
        <mxCell id="FvZhwTyln-ppsPq1cp1o-28" value="" style="endArrow=block;dashed=1;endFill=0;endSize=12;html=1;rounded=0;entryX=0.564;entryY=1.077;entryDx=0;entryDy=0;entryPerimeter=0;" edge="1" parent="1" target="FvZhwTyln-ppsPq1cp1o-8">
          <mxGeometry width="160" relative="1" as="geometry">
            <mxPoint x="460" y="259" as="sourcePoint" />
            <mxPoint x="620" y="259" as="targetPoint" />
          </mxGeometry>
        </mxCell>
        <mxCell id="FvZhwTyln-ppsPq1cp1o-29" value="" style="endArrow=block;dashed=1;endFill=0;endSize=12;html=1;rounded=0;" edge="1" parent="1">
          <mxGeometry width="160" relative="1" as="geometry">
            <mxPoint x="454.5" y="257" as="sourcePoint" />
            <mxPoint x="310" y="180" as="targetPoint" />
          </mxGeometry>
        </mxCell>
        <mxCell id="FvZhwTyln-ppsPq1cp1o-30" value="" style="endArrow=block;dashed=1;endFill=0;endSize=12;html=1;rounded=0;entryX=0.414;entryY=1.192;entryDx=0;entryDy=0;entryPerimeter=0;" edge="1" parent="1" target="FvZhwTyln-ppsPq1cp1o-6">
          <mxGeometry width="160" relative="1" as="geometry">
            <mxPoint x="458" y="260" as="sourcePoint" />
            <mxPoint x="320" y="190" as="targetPoint" />
          </mxGeometry>
        </mxCell>
        <mxCell id="FvZhwTyln-ppsPq1cp1o-31" value="" style="endArrow=block;dashed=1;endFill=0;endSize=12;html=1;rounded=0;entryX=0.5;entryY=1;entryDx=0;entryDy=0;exitX=0.423;exitY=-0.013;exitDx=0;exitDy=0;exitPerimeter=0;" edge="1" parent="1" source="FvZhwTyln-ppsPq1cp1o-15" target="FvZhwTyln-ppsPq1cp1o-9">
          <mxGeometry width="160" relative="1" as="geometry">
            <mxPoint x="455" y="370" as="sourcePoint" />
            <mxPoint x="590" y="310" as="targetPoint" />
          </mxGeometry>
        </mxCell>
        <mxCell id="FvZhwTyln-ppsPq1cp1o-23" value="" style="endArrow=block;dashed=1;endFill=0;endSize=12;html=1;rounded=0;entryX=0;entryY=1;entryDx=0;entryDy=0;exitX=0.346;exitY=-0.025;exitDx=0;exitDy=0;exitPerimeter=0;" edge="1" parent="1" source="FvZhwTyln-ppsPq1cp1o-12" target="FvZhwTyln-ppsPq1cp1o-9">
          <mxGeometry width="160" relative="1" as="geometry">
            <mxPoint x="260" y="379" as="sourcePoint" />
            <mxPoint x="420" y="379" as="targetPoint" />
          </mxGeometry>
        </mxCell>
        <mxCell id="FvZhwTyln-ppsPq1cp1o-32" value="" style="endArrow=block;dashed=1;endFill=0;endSize=12;html=1;rounded=0;entryX=0.5;entryY=1;entryDx=0;entryDy=0;exitX=0.423;exitY=-0.013;exitDx=0;exitDy=0;exitPerimeter=0;" edge="1" parent="1">
          <mxGeometry width="160" relative="1" as="geometry">
            <mxPoint x="249.5" y="378" as="sourcePoint" />
            <mxPoint x="249.5" y="310" as="targetPoint" />
          </mxGeometry>
        </mxCell>
      </root>
    </mxGraphModel>
  </diagram>
</mxfile>
